<?xml version="1.0" standalone="no"?><!DOCTYPE svg PUBLIC "-//W3C//DTD SVG 1.1//EN" "http://www.w3.org/Graphics/SVG/1.1/DTD/svg11.dtd"><svg t="1528697372966" class="icon" style="" viewBox="0 0 1170 1024" version="1.1" xmlns="http://www.w3.org/2000/svg" p-id="11349" xmlns:xlink="http://www.w3.org/1999/xlink" width="73.125" height="64"><defs><style type="text/css"></style></defs><path d="M0 519.314286c0 146.285714 43.885714 270.628571 131.657143 358.4 87.771429 95.085714 212.114286 146.285714 351.085714 146.285714s256-51.2 343.771429-138.971429c80.457143-87.771429 131.657143-204.8 138.971428-336.457142 146.285714-87.771429 190.171429-256 190.171429-263.314286l14.628571-51.2h-73.142857c21.942857-36.571429 51.2-95.085714 65.828572-168.228572L1170.285714 0H614.4h-14.628571C182.857143 0 0 263.314286 0 519.314286z m102.4-14.628572c0-204.8 160.914286-409.6 490.057143-402.285714h424.228571c-14.628571 95.085714-58.514286 160.914286-87.771428 190.171429h87.771428s-21.942857 146.285714-153.6 204.8c0 226.742857-153.6 424.228571-387.657143 424.228571-204.8 0-373.028571-168.228571-373.028571-416.914286z m109.714286-80.457143c0 21.942857 21.942857 43.885714 43.885714 43.885715 21.942857-7.314286 36.571429-21.942857 36.571429-43.885715s-21.942857-43.885714-43.885715-43.885714c-14.628571 0-36.571429 14.628571-36.571428 43.885714z m453.485714 0c0 21.942857 21.942857 43.885714 43.885714 43.885715s43.885714-21.942857 43.885715-43.885715-21.942857-43.885714-43.885715-43.885714c-29.257143 0-43.885714 14.628571-43.885714 43.885714z m-234.057143 21.942858c-95.085714 0-175.542857 80.457143-175.542857 182.857142s80.457143 182.857143 175.542857 182.857143h87.771429c95.085714 0 175.542857-80.457143 175.542857-182.857143S614.4 446.171429 519.314286 446.171429H431.542857zM299.885714 629.028571c0-73.142857 58.514286-131.657143 131.657143-131.657142h87.771429c73.142857 0 131.657143 58.514286 131.657143 131.657142s-58.514286 131.657143-131.657143 131.657143H431.542857c-73.142857 0-131.657143-58.514286-131.657143-131.657143z m204.8-14.628571c0 14.628571 14.628571 29.257143 43.885715 29.257143 21.942857 0 43.885714-14.628571 43.885714-29.257143S577.828571 585.142857 548.571429 585.142857c-21.942857 7.314286-43.885714 14.628571-43.885715 29.257143z m-124.342857 0c0 14.628571 14.628571 29.257143 43.885714 29.257143 21.942857 0 43.885714-14.628571 43.885715-29.257143S453.485714 585.142857 424.228571 585.142857c-29.257143 7.314286-43.885714 14.628571-43.885714 29.257143z" p-id="11350"></path></svg>