<?xml version="1.0" standalone="no"?><!DOCTYPE svg PUBLIC "-//W3C//DTD SVG 1.1//EN" "http://www.w3.org/Graphics/SVG/1.1/DTD/svg11.dtd"><svg t="1528697011712" class="icon" style="" viewBox="0 0 1025 1024" version="1.1" xmlns="http://www.w3.org/2000/svg" p-id="9624" xmlns:xlink="http://www.w3.org/1999/xlink" width="64.0625" height="64"><defs><style type="text/css"></style></defs><path d="M749.6704 138.4448L511.488 1.024 273.3056 138.4448v275.0464l238.1824 137.5232 238.1824-137.5232zM1.2288 610.2016v275.0464l238.1824 137.5232 238.1824-137.5232V610.2016L239.4112 472.6784zM1019.0848 700.7232c-2.7648-14.9504-11.776-24.576-23.04-24.4736h-2.3552a58.88 58.88 0 0 1-58.4704-59.0848c0-10.5472 5.0176-22.4256 5.12-22.528a31.3344 31.3344 0 0 0-10.3424-37.4784l-60.0064-33.792a33.792 33.792 0 0 0-37.4784 7.0656c-6.4512 6.8608-28.8768 26.2144-46.1824 26.2144-17.408 0-39.936-19.7632-46.4896-26.624a33.3824 33.3824 0 0 0-36.5568-7.68l-62.1568 34.304a31.3344 31.3344 0 0 0-11.0592 37.9904 65.536 65.536 0 0 1 5.12 22.528 58.88 58.88 0 0 1-58.4704 59.0848h-2.048c-11.5712 0-20.48 9.6256-23.3472 24.4736-0.2048 1.024-5.0176 26.9312-5.0176 47.2064 0 20.1728 4.8128 46.08 5.0176 47.2064 2.7648 14.9504 11.776 24.4736 22.9376 24.4736h2.4576c32.256 0 58.4704 26.5216 58.4704 59.0848a66.2528 66.2528 0 0 1-5.12 22.528 31.1296 31.1296 0 0 0 10.3424 37.376l58.7776 33.28a33.1776 33.1776 0 0 0 37.5808-7.3728c8.192-9.1136 30.6176-27.7504 47.2064-27.7504 17.92 0 40.8576 20.992 47.5136 28.2624a32.9728 32.9728 0 0 0 36.7616 8.0896l61.0304-33.9968a31.232 31.232 0 0 0 11.0592-37.888 66.9696 66.9696 0 0 1-5.12-22.528c0-32.5632 26.2144-59.0848 58.4704-59.0848h2.048c11.5712 0 20.5824-9.6256 23.3472-24.4736 0-0.3072 5.0176-26.5216 5.0176-47.2064 0-20.3776-4.8128-46.08-5.0176-47.2064zM785.3056 839.7824c-46.6944 0-84.5824-38.2976-84.5824-85.4016s37.9904-85.4016 84.5824-85.4016c46.592 0 84.5824 38.2976 84.5824 85.4016s-37.888 85.4016-84.5824 85.4016z" fill="#ffffff" p-id="9625"></path></svg>