<?xml version="1.0" standalone="no"?><!DOCTYPE svg PUBLIC "-//W3C//DTD SVG 1.1//EN" "http://www.w3.org/Graphics/SVG/1.1/DTD/svg11.dtd"><svg t="1523152850363" class="icon" style="" viewBox="0 0 1024 1024" version="1.1" xmlns="http://www.w3.org/2000/svg" p-id="3783" xmlns:xlink="http://www.w3.org/1999/xlink" width="64" height="64"><defs><style type="text/css"></style></defs><path d="M942.595256 452.939837 593.216441 452.939837C580.948248 452.939837 571.005083 442.997486 571.005083 430.73472L571.005083 81.918101C571.005083 69.655334 580.948248 59.715426 593.216441 59.715426L942.595256 59.715426C954.860464 59.715426 964.805257 69.655334 964.805257 81.918101L964.805257 430.73472C964.805257 442.997486 954.860464 452.939837 942.595256 452.939837ZM911.011612 140.734067C911.011612 128.471572 901.067091 118.531663 888.798898 118.531663L648.308943 118.531663C636.042378 118.531663 626.097586 128.471572 626.097586 140.734067L626.097586 382.684591C626.097586 394.947086 636.042378 404.887267 648.308943 404.887267L888.798898 404.887267C901.067091 404.887267 911.011612 394.947086 911.011612 382.684591L911.011612 140.734067ZM429.551178 965.7891 80.172362 965.7891C67.905798 965.7891 57.961005 955.847021 57.961005 943.584254L57.961005 594.767635C57.961005 582.504869 67.905798 572.56496 80.172362 572.56496L429.551178 572.56496C441.81937 572.56496 451.762807 582.504869 451.762807 594.767635L451.762807 943.584254C451.762807 955.847021 441.81937 965.7891 429.551178 965.7891ZM397.969162 653.586043C397.969162 641.323548 388.024369 631.381198 375.756447 631.381198L135.266222 631.381198C122.9983 631.381198 113.053507 641.323548 113.053507 653.586043L113.053507 895.531684C113.053507 907.79445 122.9983 917.73653 135.266222 917.73653L375.756447 917.73653C388.024369 917.73653 397.969162 907.79445 397.969162 895.531684L397.969162 653.586043ZM429.551178 474.843777 80.172362 474.843777C67.905798 474.843777 57.961005 464.903869 57.961005 452.641374L57.961005 81.918101C57.961005 69.655334 67.905798 59.715426 80.172362 59.715426L429.551178 59.715426C441.81937 59.715426 451.762807 69.655334 451.762807 81.918101L451.762807 452.641374C451.762807 464.903869 441.81937 474.843777 429.551178 474.843777ZM397.969162 140.734067C397.969162 128.471572 388.024369 118.531663 375.756447 118.531663L135.266222 118.531663C122.9983 118.531663 113.053507 128.471572 113.053507 140.734067L113.053507 397.286495C113.053507 409.551432 122.9983 419.48917 135.266222 419.48917L375.756447 419.48917C388.024369 419.48917 397.969162 409.551432 397.969162 397.286495L397.969162 140.734067ZM936.231207 727.915854 624.787061 727.915854C613.127462 727.915854 603.676218 717.975945 603.676218 705.71345L603.676218 670.505921C603.676218 658.243154 613.127462 648.301075 624.787061 648.301075L936.231207 648.301075C947.890807 648.301075 957.34205 658.243154 957.34205 670.505921L957.34205 705.71345C957.34205 717.975945 947.890807 727.915854 936.231207 727.915854ZM624.555345 846.352551 928.880059 846.352551C941.146624 846.352551 951.093045 856.29246 951.093045 868.554955L951.093045 901.559284C951.093045 913.821778 941.146624 923.761687 928.880059 923.761687L624.555345 923.761687C612.290137 923.761687 602.343987 913.821778 602.343987 901.559284L602.343987 868.554955C602.343987 856.29246 612.290137 846.352551 624.555345 846.352551Z" p-id="3784"></path></svg>