<?xml version="1.0" standalone="no"?><!DOCTYPE svg PUBLIC "-//W3C//DTD SVG 1.1//EN" "http://www.w3.org/Graphics/SVG/1.1/DTD/svg11.dtd"><svg t="1528696330142" class="icon" style="" viewBox="0 0 1024 1024" version="1.1" xmlns="http://www.w3.org/2000/svg" p-id="5299" xmlns:xlink="http://www.w3.org/1999/xlink" width="64" height="64"><defs><style type="text/css"></style></defs><path d="M153.617919 51.19744h665.566722a51.19744 51.19744 0 0 1 51.19744 51.19744v409.579521l-383.980801 172.893756L102.420479 511.974401V102.39488a51.19744 51.19744 0 0 1 51.19744-51.19744z m102.39488 153.592321v51.19744h460.776962V204.789761H256.012799z m0 153.59232v51.19744h460.776962V358.382081H256.012799z m-255.9872 204.78976c25.39393-68.297385 40.855557-101.268537 46.38488-98.913454 5.529324 2.303885 5.529324 41.828309 0 118.419679L486.40128 767.961602l387.462227-163.166242 47.716014-20.069396c-3.686216-78.741663-3.686216-118.931653 0-120.467577 3.737413-1.535923 20.786161 31.384031 51.19744 98.913454v409.579521a51.19744 51.19744 0 0 1-51.19744 51.197441H51.223039a51.19744 51.19744 0 0 1-51.19744-51.197441v-409.579521z" p-id="5300"></path></svg>