<?xml version="1.0" standalone="no"?><!DOCTYPE svg PUBLIC "-//W3C//DTD SVG 1.1//EN" "http://www.w3.org/Graphics/SVG/1.1/DTD/svg11.dtd"><svg t="1528695740439" class="icon" style="" viewBox="0 0 1024 1024" version="1.1" xmlns="http://www.w3.org/2000/svg" p-id="4058" xmlns:xlink="http://www.w3.org/1999/xlink" width="64" height="64"><defs><style type="text/css"></style></defs><path d="M93.486 1020.623c-41.85 0-75.897-34.064-75.897-75.938V186.133c0-41.875 34.047-75.942 75.897-75.942h118.483V94.739c0-14.787 12.026-26.817 26.808-26.817h92.017l0.598-0.684c15.453-17.689 34.537-32.661 55.189-43.296 26.095-13.454 55.509-20.565 85.064-20.565 29.556 0 58.972 7.112 85.07 20.567 20.648 10.634 39.729 25.604 55.178 43.294l0.598 0.685h92.025c14.781 0 26.807 12.03 26.807 26.817v15.452h118.479c41.85 0 75.898 34.067 75.898 75.942V433.49c0 14.791-12.025 26.824-26.805 26.824-14.785 0-26.813-12.033-26.813-26.824V186.133c0-12.3-9.996-22.306-22.281-22.306H731.322v136.54c0 14.793-12.025 26.829-26.807 26.829h-465.74c-14.781 0-26.807-12.035-26.807-26.829v-136.54H93.486c-12.285 0-22.28 10.006-22.28 22.306v758.552c0 12.299 9.995 22.305 22.28 22.305h410.426c7.161 0 13.895 2.791 18.959 7.857 5.063 5.064 7.852 11.799 7.85 18.961 0 14.785-12.025 26.814-26.809 26.814H93.486z m172.098-747.069H677.71v-151.99h-78.053c-0.217 0-0.426-0.008-0.635-0.017l-0.521-0.024c-0.289-0.014-0.58-0.031-0.875-0.056a27.057 27.057 0 0 1-2.398-0.292 23.202 23.202 0 0 1-2.525-0.549 21.112 21.112 0 0 1-1.58-0.474 14.35 14.35 0 0 1-0.68-0.238l-0.373-0.138a27.631 27.631 0 0 1-1.439-0.599 31.95 31.95 0 0 1-2.232-1.136 23.101 23.101 0 0 1-0.648-0.385l-0.414-0.254a28.023 28.023 0 0 1-1.07-0.714 22.53 22.53 0 0 1-1.049-0.784c-0.334-0.26-0.645-0.509-0.953-0.769l-0.18-0.155a24.954 24.954 0 0 1-0.576-0.525l-0.15-0.138a25.155 25.155 0 0 1-1.834-1.897 22.34 22.34 0 0 1-1.002-1.207l-0.188-0.229-0.236-0.306c-25.26-34.092-64.068-53.663-106.456-53.663-42.382 0-81.19 19.57-106.474 53.692a9.272 9.272 0 0 1-0.405 0.511 28.462 28.462 0 0 1-1.247 1.475c-0.207 0.236-0.39 0.438-0.583 0.642a26.045 26.045 0 0 1-1.753 1.666 9.688 9.688 0 0 1-0.552 0.479 26.057 26.057 0 0 1-2.212 1.622c-0.292 0.196-0.584 0.374-0.87 0.54-0.562 0.339-1.103 0.651-1.657 0.94l-0.956 0.464c-0.625 0.289-1.247 0.551-1.857 0.78l-0.258 0.093c-0.191 0.073-0.381 0.143-0.571 0.206a28.99 28.99 0 0 1-2.105 0.615s-0.422 0.108-0.555 0.14c-0.791 0.181-1.597 0.324-2.516 0.447l-0.521 0.067c-0.972 0.108-1.96 0.165-2.919 0.165h-78.047v151.995z" fill="#ffffff" p-id="4059"></path><path d="M238.773 634.65c-14.78 0-26.804-12.031-26.804-26.822 0-14.789 12.024-26.82 26.804-26.82h230.621c14.782 0 26.808 12.031 26.808 26.82 0 14.791-12.025 26.822-26.807 26.822H238.773zM238.773 761.451c-14.78 0-26.804-12.031-26.804-26.82 0-14.787 12.024-26.816 26.804-26.816h180.173c14.781 0 26.807 12.029 26.807 26.816 0 14.789-12.025 26.82-26.807 26.82H238.773zM238.773 507.84c-14.78 0-26.804-12.032-26.804-26.82 0-14.787 12.024-26.817 26.804-26.817h404.732c14.783 0 26.809 12.03 26.809 26.817 0 14.788-12.025 26.819-26.807 26.82H238.773z" fill="#ffffff" p-id="4060"></path><path d="M776.564 698.254c-45.887 0-83.219 37.326-83.219 83.207 0 45.887 37.332 83.219 83.219 83.219s83.215-37.332 83.215-83.217c0.006-22.193-8.656-43.082-24.391-58.813-15.732-15.734-36.622-24.396-58.824-24.396z m0 128.074c-24.73 0-44.852-20.121-44.852-44.857 0-24.727 20.121-44.844 44.852-44.844s44.85 20.115 44.85 44.844c0 24.734-20.121 44.857-44.85 44.857z" fill="#ffffff" p-id="4061"></path><path d="M1001.635 736.975c-2.939-15.588-12.74-25.658-24.961-25.658-0.133 0-0.262 0-0.393 0.004h-1.885c-28.598 0-51.863-23.273-51.863-51.881 0-9.139 4.482-19.621 4.512-19.684 6.096-13.717 1.408-30.539-10.846-39.086l-0.826-0.594-56.006-31.098-1.119-0.512c-4.066-1.766-8.5-2.66-13.176-2.66-9.549 0-18.957 3.85-25.176 10.293-7.363 7.635-27.121 23.404-41.182 23.404-15.244 0-35.574-17.672-41.477-23.842-6.248-6.578-15.73-10.504-25.375-10.504-4.598 0-8.951 0.859-12.973 2.57l-0.6 0.26-58.52 32.086-0.824 0.598c-12.289 8.576-16.982 25.318-10.934 38.992 1.693 4.008 4.557 12.668 4.557 19.773 0 28.607-23.277 51.881-51.887 51.881H578.8c-0.135-0.004-0.271-0.004-0.406-0.004-12.205 0-21.998 10.068-24.941 25.641-0.051 0.246-4.773 25.16-4.773 44.814 0 19.271 4.572 43.754 4.77 44.793 2.945 15.58 12.738 25.654 24.945 25.654 0.125 0 0.252-0.006 0.338-0.012h1.943c28.607 0 51.883 23.266 51.883 51.867 0 8.938-4.34 19.271-4.52 19.699l-0.004 0.012c-6.088 13.705-1.408 30.518 10.838 39.072l0.816 0.582 54.945 30.719 1.129 0.518c4.076 1.787 8.494 2.689 13.127 2.689 9.705 0 19.197-4.037 25.385-10.785 7.176-7.793 27.74-24.877 42.117-24.877 15.697 0 36.385 18.801 42.381 25.373 6.221 6.861 15.781 10.955 25.572 10.955 4.613 0 8.969-0.885 12.889-2.596l0.883-0.373 56.93-31.457 1.092-0.725c12.303-8.584 17.002-25.387 10.949-39.035-0.045-0.107-4.547-10.643-4.547-19.785 0-28.596 23.27-51.865 51.869-51.865h1.883c0.119 0.006 0.24 0.037 0.357 0.006 12.248 0 22.053-10.072 24.975-25.605 0.049-0.244 4.785-24.961 4.785-44.838-0.008-19.639-4.732-44.549-4.775-44.779zM889.766 933.729l-45.096 24.93c-3.322-3.357-9.795-9.547-18.096-15.717-17.525-13.012-34.414-19.611-50.191-19.611-15.621 0-32.381 6.471-49.824 19.234-8.297 6.094-14.688 12.117-17.998 15.426l-43.271-24.197c2.324-6.5 5.627-17.83 5.627-29.725 0-46.398-35.041-84.908-80.633-89.729-1.182-7.299-3.23-21.51-3.23-32.564 0-11.094 2.041-25.291 3.223-32.582 45.598-4.813 80.641-43.33 80.641-89.744 0-11.729-3.215-22.926-5.598-29.611l46.365-25.463c3.285 3.195 9.701 9.094 18.021 15.037 17.217 12.26 33.703 18.475 48.994 18.475 15.129 0 31.477-6.094 48.588-18.115a156.758 156.758 0 0 0 17.924-14.752l44.549 24.756c-2.391 6.68-5.619 17.893-5.619 29.674 0 46.422 35.047 84.938 80.648 89.742 1.211 7.506 3.225 21.613 3.225 32.592 0.014 10.947-1.941 24.773-3.205 32.57-45.604 4.813-80.648 43.316-80.648 89.719-0.006 11.793 3.215 22.981 5.604 29.655z" p-id="4062"></path></svg>