<?xml version="1.0" standalone="no"?><!DOCTYPE svg PUBLIC "-//W3C//DTD SVG 1.1//EN" "http://www.w3.org/Graphics/SVG/1.1/DTD/svg11.dtd"><svg t="1528696106714" class="icon" style="" viewBox="0 0 1255 1024" version="1.1" xmlns="http://www.w3.org/2000/svg" p-id="4832" xmlns:xlink="http://www.w3.org/1999/xlink" width="78.4375" height="64"><defs><style type="text/css"></style></defs><path d="M202.939081 938.09479l14.68333 73.663949a15.76526 15.76526 0 0 1 0.123649 2.967579 8.315402 8.315402 0 0 1-1.545613 5.224174 5.84242 5.84242 0 0 1-4.853227 2.287508 13.786874 13.786874 0 0 1-6.306104-1.731087l-71.62374-34.034414-70.727284 35.672765a14.219646 14.219646 0 0 1-6.244279 1.854736c-2.349333 0-3.894947-0.68007-5.069613-2.102035a8.222665 8.222665 0 0 1-1.700175-5.224174c0-0.618245 0-1.545614 0.216386-2.967578l12.612208-73.973073-58.455111-51.530761c-2.627543-2.782105-4.049508-5.131438-4.049508-7.171648 0-3.678561 2.874842-5.935157 8.809998-6.862525l79.382721-11.715752 34.745396-67.666968c1.947473-4.049508 4.513192-6.089718 7.635332-6.089718 3.214877 0 5.84242 1.947473 7.913542 5.935156l36.600133 66.801425 79.691843 9.830103c5.904244 0.772807 8.995472 3.060315 8.995472 6.615227 0 2.194771-1.329228 4.605929-3.987683 7.171648l-56.816761 52.921813v0.12365zM202.939081 536.822556l14.68333 73.694862c0.123649 0.958281 0.154561 1.916561 0.123649 2.874842a8.068104 8.068104 0 0 1-1.545613 5.285999 5.904244 5.904244 0 0 1-4.853227 2.194771 14.126909 14.126909 0 0 1-6.306104-1.700175l-71.62374-34.034414-70.727284 35.734589a13.910523 13.910523 0 0 1-6.244279 1.792912c-2.349333 0-3.894947-0.618245-5.069613-2.102034a8.16084 8.16084 0 0 1-1.700175-5.224175c0-0.556421 0-1.545614 0.216386-2.967578l12.64312-73.818511-58.455111-51.592586c-2.658456-2.72028-4.08042-5.069613-4.08042-7.109823 0-3.678561 2.874842-5.996981 8.809998-6.955262l79.351808-11.715752 34.745397-67.605144c1.947473-4.049508 4.513192-6.089718 7.635332-6.151543 3.214877 0 5.84242 1.947473 7.913542 5.996982l36.600133 66.7396 79.691843 9.830103c5.904244 0.772807 8.995472 3.12214 8.995472 6.707964 0 2.194771-1.329228 4.544104-3.987684 7.109823l-56.81676 53.01455zM202.939081 149.399022l14.68333 73.571213a16.352593 16.352593 0 0 1 0.123649 2.99849 8.222665 8.222665 0 0 1-1.545613 5.316912 5.811508 5.811508 0 0 1-4.853227 2.163859 14.126909 14.126909 0 0 1-6.306104-1.700175L133.386464 197.714907 62.65918 233.449496a13.786874 13.786874 0 0 1-6.244279 1.792912c-2.349333 0-3.894947-0.618245-5.069613-2.102035a7.975367 7.975367 0 0 1-1.700175-5.16235 19.16561 19.16561 0 0 1 0.216386-2.967578l12.64312-74.003985-58.424199-51.561673C1.421965 96.786331 0 94.436998 0 92.396788c0-3.678561 2.874842-5.996981 8.809998-6.955262l79.351808-11.684839L122.907203 6.151543C124.885588 2.102035 127.451307 0 130.573447 0c3.214877 0 5.84242 1.947473 7.913542 5.935157l36.600133 66.832337 79.691843 9.830103c5.904244 0.741895 8.96456 3.029403 8.96456 6.707964 0 2.102035-1.329228 4.513192-3.987684 7.07891L202.939081 149.399022zM1255.161988 117.621204A74.034897 74.034897 0 0 1 1181.127091 191.656101H440.839944a74.034897 74.034897 0 1 1 0-148.069794H1181.158003a74.003985 74.003985 0 0 1 74.003985 74.034897zM1255.161988 505.075651a74.034897 74.034897 0 0 1-74.034897 74.034897H440.839944a74.034897 74.034897 0 1 1 0-148.069795H1181.158003a74.003985 74.003985 0 0 1 74.003985 74.034898zM1255.161988 906.347884a74.034897 74.034897 0 0 1-74.034897 74.034897H440.839944a74.034897 74.034897 0 1 1 0-148.069794H1181.158003a74.034897 74.034897 0 0 1 74.003985 74.034897z" p-id="4833"></path></svg>