<?xml version="1.0" standalone="no"?><!DOCTYPE svg PUBLIC "-//W3C//DTD SVG 1.1//EN" "http://www.w3.org/Graphics/SVG/1.1/DTD/svg11.dtd"><svg t="1528699350777" class="icon" style="" viewBox="0 0 1024 1024" version="1.1" xmlns="http://www.w3.org/2000/svg" p-id="13527" xmlns:xlink="http://www.w3.org/1999/xlink" width="64" height="64"><defs><style type="text/css"></style></defs><path d="M916 956H596c-22.4 0-40-17.6-40-40V596c0-22.4 17.6-40 40-40h320c22.4 0 40 17.6 40 40v320c0 22.4-17.6 40-40 40zM763.2 498.4c-12.8 12.8-33.6 12.8-45.6 0l-184-183.2c-12.8-12.8-12.8-33.6 0-45.6L716.8 86.4c12.8-12.8 33.6-12.8 45.6 0l183.2 183.2c12.8 12.8 12.8 33.6 0 45.6L763.2 498.4zM436 956H116c-22.4 0-40-17.6-40-40V596c0-22.4 17.6-40 40-40h320c22.4 0 40 17.6 40 40v320c0 22.4-17.6 40-40 40z m0-480H116c-22.4 0-40-17.6-40-40V116c0-22.4 17.6-40 40-40h320c22.4 0 40 17.6 40 40v320c0 22.4-17.6 40-40 40z" fill="" p-id="13528"></path></svg>