<?xml version="1.0" standalone="no"?><!DOCTYPE svg PUBLIC "-//W3C//DTD SVG 1.1//EN" "http://www.w3.org/Graphics/SVG/1.1/DTD/svg11.dtd"><svg t="1528698999453" class="icon" style="" viewBox="0 0 1024 1024" version="1.1" xmlns="http://www.w3.org/2000/svg" p-id="12253" xmlns:xlink="http://www.w3.org/1999/xlink" width="64" height="64"><defs><style type="text/css"></style></defs><path d="M204.8 716.744v51.09H333.49c-0.64-8.43-0.968-16.95-0.968-25.545s0.326-17.114 0.968-25.545H204.8zM402.841 537.93H204.8v51.09h165.156a332.45 332.45 0 0 1 32.887-51.09zM511.338 1.488H358.069v51.089h153.27V1.487zM424.99 972.193H77.074c-14.109 0-25.544-11.436-25.544-25.545V78.122c0-14.109 11.435-25.545 25.544-25.545H199.59c16.148 5.512 30.43 19.372 30.754 51.09 0.567 55.838 76.634 51.089 76.634 51.089h255.449s71.482 0 76.634-58.493c2.328-26.431 15.483-38.574 30.254-43.687H792.33c14.109 0 25.545 11.436 25.545 25.545v369.515a332.396 332.396 0 0 1 51.09 32.888V52.577c0-28.216-22.874-51.09-51.09-51.09H664.607s-76.634-15.12-76.634 51.09c0 35.079-21.512 47.326-41.742 51.09H330.968c-22.05-2.739-49.534-13.655-49.534-51.09 0-62.509-76.635-51.092-76.635-51.092l-0.002 0.003H51.53C23.313 1.488 0.44 24.36 0.44 52.577v919.616c0 28.216 22.873 51.09 51.09 51.09h436.053a333.59 333.59 0 0 1-62.593-51.09z m239.617-613.076H204.8v51.09h459.808v-51.09z m0 102.179c-155.188 0-280.993 125.805-280.993 280.993s125.805 280.994 280.993 280.994 280.994-125.806 280.994-280.994-125.806-280.993-280.994-280.993z m153.27 306.538H639.063V589.02h51.089v127.725h127.725v51.088z" p-id="12254"></path></svg>